#!OML:ASF F:\VICON\USERDATA\Patient Classification 1\PLAYGROUND\JustinFriday\JustinFriday.ASF
:FULLY-SPECIFIED
:DEGREES
4240
root 39.2662 17.9167 1.33742 -363.884 -19.6036 10.5921
lowerback 14.2326 -2.48947 -11.319
upperback 2.01755 -5.08894 -0.68833
thorax -4.89239 -2.32493 6.52712
lowerneck 2.68934 -13.3813 -13.7467
upperneck -3.22187 -18.1828 14.4128
head 1.21331 -9.18451 6.01933
rclavicle -5.55603e-014 2.22639e-014
rhumerus -37.5027 -13.7889 -75.9348
rradius 26.9841
rwrist -5.46862
rhand -8.05987 -24.4306
rfingers 7.12502
rthumb 17.8512 -53.6313
lclavicle -5.55603e-014 2.22639e-014
lhumerus -11.3549 2.59446 76.4308
lradius 47.1489
lwrist -3.21
lhand -23.2981 -13.3754
lfingers 7.12502
lthumb 3.15522 16.581
rfemur -37.9752 -5.93806 16.6485
rtibia 27.7965
rfoot -16.1918 -14.483
rtoes 0.820629
lfemur 19.7519 -1.99756 -29.7471
ltibia 5.08889e-014
lfoot -13.6184 4.61574
ltoes -4.21886
4241
root 39.1919 17.8945 1.4692 -363.779 -19.3791 10.7458
lowerback 14.1145 -2.58288 -11.3439
upperback 1.91673 -5.20733 -0.690643
thorax -4.91179 -2.37706 6.55112
lowerneck 2.214 -13.4226 -13.0277
upperneck -2.90933 -18.1741 13.5336
head 1.2255 -9.1569 5.62573
rclavicle 5.11871e-014 -3.18055e-015
rhumerus -37.5856 -13.094 -76.2765
rradius 27.5609
rwrist -6.18672
rhand -8.76939 -24.5654
rfingers 7.12502
rthumb 17.1684 -53.8269
lclavicle 5.11871e-014 -3.18055e-015
lhumerus -11.5895 2.42026 76.7673
lradius 47.3036
lwrist -3.869
lhand -23.6223 -13.7332
lfingers 7.12502
lthumb 2.84209 16.2276
rfemur -37.1961 -5.55543 16.0023
rtibia 25.8668
rfoot -16.6771 -17.0491
rtoes 2.84535
lfemur 20.1106 -2.26243 -29.8009
ltibia 6.36111e-015
lfoot -13.4025 4.28306
ltoes -2.94177
4242
root 39.1168 17.8735 1.60092 -363.633 -19.2741 10.678
lowerback 14.134 -2.63765 -11.2038
upperback 1.72292 -5.26537 -0.549188
thorax -5.11964 -2.38523 6.64478
lowerneck 1.98802 -13.4943 -12.7946
upperneck -2.63106 -18.2509 12.981
head 1.27585 -9.18136 5.40375
rclavicle 6.47044e-014 -1.74931e-014
rhumerus -37.7232 -12.7387 -76.2329
rradius 27.9185
rwrist -6.51695
rhand -9.19059 -24.3904
rfingers 7.12502
rthumb 16.763 -53.6868
lclavicle 6.47044e-014 -1.74931e-014
lhumerus -12.1302 2.40815 77.2091
lradius 47.7152
lwrist -4.28932
lhand -23.5311 -13.8718
lfingers 7.12502
lthumb 2.93019 16.0878
rfemur -36.4719 -4.47088 15.3394
rtibia 24.429
rfoot -17.4735 -20.2302
rtoes 3.43707
lfemur 20.509 -2.42134 -29.6126
ltibia -7.63333e-014
lfoot -14.0015 3.90805
ltoes -1.64859
4243
root 39.0378 17.8519 1.7341 -363.483 -19.2456 10.4745
lowerback 14.1419 -2.69344 -10.9293
upperback 1.56402 -5.29977 -0.412238
thorax -5.30044 -2.38807 6.65308
lowerneck 2.36775 -13.5263 -12.7913
upperneck -2.95962 -18.3114 13.0075
head 1.12859 -9.22504 5.4493
rclavicle 8.89561e-014 1.78906e-014
rhumerus -37.8635 -12.4601 -76.2145
rradius 28.1987
rwrist -6.56917
rhand -9.44679 -24.2821
rfingers 7.12502
rthumb 16.5163 -53.5991
lclavicle 8.89561e-014 1.78906e-014
lhumerus -12.6555 2.49107 77.4784
lradius 48.0559
lwrist -4.80895
lhand -23.112 -14.1667
lfingers 7.12502
lthumb 3.33493 15.787
rfemur -35.804 -2.80883 14.6407
rtibia 23.5239
rfoot -18.5217 -23.7377
rtoes 3.71518
lfemur 20.9978 -2.51076 -29.2522
ltibia 2.22639e-014
lfoot -14.442 3.64389
ltoes -2.61136
4244
root 38.9548 17.8325 1.87494 -363.505 -19.4363 10.5025
lowerback 14.0823 -2.65411 -10.8735
upperback 1.51571 -5.23216 -0.365526
thorax -5.33284 -2.35182 6.65976
lowerneck 2.8972 -13.4933 -13.2583
upperneck -3.46589 -18.3101 13.5949
head 0.997343 -9.24718 5.73899
rclavicle 5.11871e-014 -1.59028e-015
rhumerus -37.8217 -11.952 -76.3974
rradius 28.4502
rwrist -6.8274
rhand -9.39302 -24.3205
rfingers 7.12502
rthumb 16.5681 -53.6332
lclavicle 5.11871e-014 -1.59028e-015
lhumerus -12.9253 2.59384 77.6914
lradius 48.0318
lwrist -5.26055
lhand -22.6513 -14.4725
lfingers 7.12502
lthumb 3.77988 15.4738
rfemur -35.099 -1.68239 14.078
rtibia 23.0721
rfoot -21.0988 -25.5033
rtoes 7.61006
lfemur 21.6075 -2.3529 -29.1195
ltibia -6.36111e-015
lfoot -14.6939 3.72098
ltoes -5.48971
4245
root 38.8742 17.8139 2.02324 -363.647 -19.8355 10.6824
lowerback 13.9972 -2.39818 -10.8427
upperback 1.56014 -4.87881 -0.403686
thorax -5.31041 -2.18307 6.54017
lowerneck 2.69763 -13.6609 -13.2669
upperneck -3.43791 -18.516 13.6068
head 1.06598 -9.34319 5.70964
rclavicle -4.14466e-014 -1.98785e-014
rhumerus -37.65 -11.9308 -76.4041
rradius 28.5964
rwrist -7.25927
rhand -9.22199 -23.6499
rfingers 7.12502
rthumb 16.7327 -52.9488
lclavicle -4.14466e-014 -1.98785e-014
lhumerus -12.888 2.50665 78.1319
lradius 47.9058
lwrist -5.58622
lhand -22.1065 -14.2904
lfingers 7.12502
lthumb 4.30595 15.6459
rfemur -34.5005 -1.73492 14.0023
rtibia 23.024
rfoot -22.9807 -25.8641
rtoes 10.564
lfemur 22.2464 -1.96246 -29.1797
ltibia -3.81667e-014
lfoot -14.3589 3.74677
ltoes -6.63719
4246
root 38.7972 17.791 2.1676 -363.599 -20.2455 10.815
lowerback 13.682 -2.31355 -10.7128
upperback 1.51242 -4.71457 -0.454072
thorax -5.23299 -2.10911 6.36757
lowerneck 2.64052 -13.7331 -12.9404
upperneck -3.45353 -18.591 13.2387
head 1.01207 -9.37654 5.554
rclavicle 1.54058e-014 5.12864e-014
rhumerus -37.5889 -11.7587 -76.4395
rradius 28.7439
rwrist -7.5154
rhand -9.12218 -22.8349
rfingers 7.12502
rthumb 16.8288 -52.1256
lclavicle 1.54058e-014 5.12864e-014
lhumerus -13.2308 2.68253 78.3498
lradius 47.9333
lwrist -5.83148
lhand -22.1054 -14.3912
lfingers 7.12502
lthumb 4.30695 15.545
rfemur -34.3172 -2.998 14.5806
rtibia 23.3095
rfoot -21.7896 -26.1885
rtoes 8.65039
lfemur 22.6756 -1.59526 -29.1743
ltibia -6.99722e-014
lfoot -14.181 3.55643
ltoes -6.32538
